/* XPM */
static char *_db282af7bbf473ca37c3549c2e27377[] = {
/* columns rows colors chars-per-pixel */
"32 32 256 2 ",
"   c #AF6B14",
".  c #B16C16",
"X  c #B26E1A",
"o  c #B47017",
"O  c #BB7519",
"+  c #BB7C1C",
"@  c #B4721A",
"#  c #C97E16",
"$  c #C17F1F",
"%  c #CA8016",
"&  c #C0821C",
"*  c #CD841D",
"=  c #CB891F",
"-  c #D3851D",
";  c #D38A1E",
":  c #D98E1F",
">  c #DB941B",
",  c #DD991E",
"<  c #E0961E",
"1  c #E19C1F",
"2  c #ED9F1E",
"3  c #EBA31D",
"4  c #F2A31D",
"5  c #C88820",
"6  c #C38528",
"7  c #CA8826",
"8  c #D18720",
"9  c #D58B22",
"0  c #D98D22",
"q  c #CC9223",
"w  c #D59323",
"e  c #DB9424",
"r  c #DE9A25",
"t  c #D59229",
"y  c #DA952A",
"u  c #D3992C",
"i  c #DC9B2D",
"p  c #C99630",
"a  c #CD923D",
"s  c #D39332",
"d  c #D69A33",
"f  c #DA9D33",
"g  c #E09624",
"h  c #E29C24",
"j  c #E29C29",
"k  c #DEA227",
"l  c #DFA12A",
"z  c #DEA534",
"x  c #DFA63C",
"c  c #DDAB3B",
"v  c #DEAA32",
"b  c #E5A224",
"n  c #ECA423",
"m  c #E7AD27",
"M  c #EBAA26",
"N  c #E5A42B",
"B  c #EAA52A",
"V  c #E5A92D",
"C  c #EBAC2B",
"Z  c #F3AD2C",
"A  c #F2A926",
"S  c #E6B22D",
"D  c #ECB22E",
"F  c #F4B52E",
"G  c #F5B92E",
"H  c #F9BA2E",
"J  c #F4B327",
"K  c #E1A533",
"L  c #E4AC33",
"P  c #EAAD32",
"I  c #E7AF39",
"U  c #EAAE3A",
"Y  c #E0A33E",
"T  c #E7B136",
"R  c #ECB333",
"E  c #EEBC35",
"W  c #E5B33C",
"Q  c #EAB43C",
"!  c #E7BA3B",
"~  c #ECB93A",
"^  c #F3B334",
"/  c #F4BB33",
"(  c #FABE31",
")  c #F2B43B",
"_  c #F2BE3A",
"`  c #F8BB3E",
"'  c #F6C036",
"]  c #FCC334",
"[  c #FFC836",
"{  c #F5C33A",
"}  c #FAC63C",
"|  c #F6C93C",
" . c #FDCB3D",
".. c #FFD13E",
"X. c #CD9544",
"o. c #CD9B47",
"O. c #D39C43",
"+. c #DD9F43",
"@. c #D69D49",
"#. c #CD9F53",
"$. c #D19D51",
"%. c #CEA648",
"&. c #D3A147",
"*. c #DCA845",
"=. c #DAA14A",
"-. c #D6AB49",
";. c #DBB04E",
":. c #CDA05F",
">. c #D9A657",
",. c #D7A957",
"<. c #DBAB52",
"1. c #D4AD5A",
"2. c #DDBE52",
"3. c #D8B35E",
"4. c #D9B55D",
"5. c #E0A446",
"6. c #E2AB42",
"7. c #E7B140",
"8. c #EBBC43",
"9. c #E6B74C",
"0. c #EBB74A",
"q. c #E6B64A",
"w. c #F6BC45",
"e. c #F9BF42",
"r. c #F2BF48",
"t. c #E2AE57",
"y. c #E5B753",
"u. c #E6BE54",
"i. c #E3B55F",
"p. c #CCA667",
"a. c #DFAF60",
"s. c #D9B961",
"d. c #DABC6D",
"f. c #D9B465",
"g. c #CFAF70",
"h. c #DCB577",
"j. c #D9B778",
"k. c #E1BC6C",
"l. c #E5BE7B",
"z. c #E6C147",
"x. c #ECC245",
"c. c #ECC34A",
"v. c #EAC84D",
"b. c #E6C44A",
"n. c #F3C442",
"m. c #FAC645",
"M. c #F4CB45",
"N. c #FCCE45",
"B. c #F3C44D",
"V. c #FAC54D",
"C. c #F3CC4C",
"Z. c #F9CC4B",
"A. c #F2D147",
"S. c #FDD344",
"D. c #F5D44D",
"F. c #FBD44B",
"G. c #FDDC4C",
"H. c #ECC752",
"J. c #ECCC53",
"K. c #E8C15D",
"L. c #E6CE59",
"P. c #EACA58",
"I. c #F5C651",
"U. c #F9C752",
"Y. c #F2CC52",
"T. c #FBC850",
"R. c #F4CB58",
"E. c #EBD15D",
"W. c #F1D454",
"Q. c #FDD353",
"!. c #FCDB51",
"~. c #F1D75B",
"^. c #FAD55C",
"/. c #FDDA58",
"(. c #F2D95D",
"). c #FEE050",
"_. c #DFC166",
"`. c #DBC06A",
"'. c #DEC674",
"]. c #E6C165",
"[. c #E4C26A",
"{. c #ECC162",
"}. c #F0C764",
"|. c #F3C96E",
" X c #ECD163",
".X c #ECD36C",
"XX c #F2D363",
"oX c #FDDE66",
"OX c #F6D36B",
"+X c #F6DB6D",
"@X c #FBDD6C",
"#X c #F8D465",
"$X c #E6C37D",
"%X c #E7C374",
"&X c #F1CE73",
"*X c #EBD876",
"=X c #F4D473",
"-X c #F6D971",
";X c #F4D37E",
":X c #F5DA7D",
">X c #FADB7B",
",X c #F6E27F",
"<X c #FEE87F",
"1X c #FCE375",
"2X c #E0BC84",
"3X c #E0C684",
"4X c #E5CA83",
"5X c #ECDA84",
"6X c #EDDF89",
"7X c #ECD28F",
"8X c #F4D484",
"9X c #F5DB83",
"0X c #FDDF81",
"qX c #F3D78B",
"wX c #F9DF8C",
"eX c #EACF92",
"rX c #E7D499",
"tX c #E9D598",
"yX c #F7DD9B",
"uX c #F6DB92",
"iX c #EEE08D",
"pX c #FBE382",
"aX c #FEEB82",
"sX c #F6E38C",
"dX c #FFED88",
"fX c #FBE995",
"gX c #FBE499",
"hX c #F5E99D",
"jX c #FBEA9C",
"kX c #F4E395",
"lX c #FFF497",
"zX c #FFF498",
"xX c #EEDBA2",
"cX c #ECDCA9",
"vX c #F3DEA4",
"bX c #F2DFA8",
"nX c #FDEBA4",
"mX c #F4E3AA",
"MX c #F8E6AF",
"NX c #FEEBAA",
"BX c #F3E1A3",
"VX c #FEF6A3",
"CX c #F3E7B4",
"ZX c #F7E8B3",
"AX c #FCEBB4",
"SX c #F0E7BB",
"DX c #F3E9BA",
"FX c #FDEDB9",
"GX c #FFF2BE",
"HX c #F2EBC2",
"JX c #FBF1C0",
"KX c #FFF9CD",
"LX c #F8F2CA",
"PX c #FEFAD3",
"IX c #FFFFDF",
"UX c None",
/* pixels */
"UXUXUXUXUXUXUXUXUXUXUXUXfXfXsXsX9X,X>XpXUXUXUXUXUXUXUXUXUXUXUXUX",
"UXUXUXUXUXUXUXUXUXjXhXiX*X XL.J.J.b.z.z.c.R.pXUXUXUXUXUXUXUXUXUX",
"UXUXUXUXUXUXUXUXhX6XE.D.).(.W.G.G.D.A.| E S S R.UXUXUXUXUXUXUXUX",
"UXUXUXUXUXUXnX6XE.D.(.XXD. Xv.S...n.{ { x.{ G V K.gXUXUXUXUXUXUX",
"UXUXUXUXUXnX*XA.!.D.E.J.C.A.x.[ ] { ' _ 8./ / / N k.ZXUXUXUXUXUX",
"UXUXUXUXjX X| A.C.Y.M.c.E S W W W T C D R R Q W J h d.MXUXUXUXUX",
"UXUXUXgX X| C.P.| n.S c _.5XkXsX,X+XJ.Q N N C V B L w s.yXUXUXUX",
"UXUXUX X' n.H.Y._ k 4.hXVXlXdX<XoX/.Q.S.{ V r N z f N ; 9.UXUXUX",
"UXUX-X_ ] ' n.E u '.zXzX<X,XoX@XN.[ ' [ } [ V 0 i i y y * c.UXUX",
"UXwXn.H ( ( H w `.zXaX,X1X^./.Z.{ ' ^ / / G G h 8 e d d 8 , 8XUX",
"UX#XD ^ ~ ^ r %.aX+XXXY.I.Q.M.{ G E C D Z M n C 9 8 s t 0 # q.UX",
"UX{ C ! T L 6 XXoXI n n ~ m._ D M R C , 2 3 b B g * 0 0 0 * w UX",
"wXD B C T u p !.N.Q w.4 B B.D R 3 ^ b < 4 w.K g g * 9 0 y 9 # l.",
"=XP n h N $ v .. .Q P 4 B 8.P ( 4 C h h 4 ^ y 0 e 8 - u y i # >.",
";XK j K K O R [ ' R N Z n N _ m.4 n y n Z h - e i 8 ; k 1 N - @.",
"uXx e y t @ R n.n.~ N ^ Z B m.m.A A j Z ^ j N K y 0 : N V Z > a ",
"vX+.r Y d . C / R Q K U ^ ^ T.V.^ ^ Z ^ ) N j i K e w S C ~ , *.",
"bX=.: y t   r ^ 7.C r U e.F T.I.U ` Z w.Q h V B B h b E ~ ~ b y.",
"vX<.- 0 u X = C h h 0 z T.H V.Q i e.J V.P N B B Z C m / / ] m ].",
"BXy.- d y 6 o h h y 9 9 V.] ` N w ) H U.8.D F / ] C / { C.| S $X",
"UXr.9 i i w   8 j 0 9 * 0...C h r j ] U._ M.M...} T n.B.Z.B.L UX",
"UXR.1 g r b 5 . 0 - 8 * Y F.j g Z k _ C.M.n.N...! c.W.E.+X9.*.UX",
"UX8XM 1 i f N $ o 0 0 0 i ! g h C ~ Q N...S.G.x.u.OX-X.X9Xf h.UX",
"UXUXQ 3 M z z C & $ g B N C B D / | A.S.!.G.c.].=X.X:XnXk.s UXUX",
"UXUXUX, J D D ] H q & j F ( / } S.S.G.).D.u.%XgXfX5X5XxX7 2XUXUX",
"UXUXUXa.> ] [ [ N.m.W p u L / M.M.A.v.2.d.7XNXAXFXGXDXO.$.UXUXUX",
"UXUXUXUX@.h N.Q.B.B V.+X[.3.1.1.4.d.3XxXAX>X^.ZXKXLX,.O.UXUXUXUX",
"UXUXUXUXUX=.V #X}.i i.>XQ.<XnXqXyXGX8X|.CX&Xc.GXHX<.&.UXUXUXUXUX",
"UXUXUXUXUXUXi.~ -XqXNX8XF =XmXK 5.SXt.> ZXPXSXtX*.3.UXUXUXUXUXUX",
"UXUXUXUXUXUXUXj.x.I.qXmXmXJXKX%X$XIXCXcXSXxXs.-.j.UXUXUXUXUXUXUX",
"UXUXUXUXUXUXUXUXUXh.6.6.i.$XeXxXxXrX4X[.;.-.g.UXUXUXUXUXUXUXUXUX",
"UXUXUXUXUXUXUXUXUXUXUXUX:.X.a a X.o.#.p.UXUXUXUXUXUXUXUXUXUXUXUX"
};
