/* XPM */
static char *f3b654ee652049df9ebd70ddc5c8f277[] = {
/* columns rows colors chars-per-pixel */
"80 80 256 2 ",
"   c #9B5911",
".  c #A35F13",
"X  c #9E6111",
"o  c #AB6C19",
"O  c #A96715",
"+  c #B26C17",
"@  c #BB7419",
"#  c #BD7B1B",
"$  c #B57619",
"%  c #AF761E",
"&  c #B67D21",
"*  c #C57D1C",
"=  c #C97E1C",
"-  c #BE841D",
";  c #BB8428",
":  c #BB8B38",
">  c #BE9036",
",  c #C3841D",
"<  c #CB831E",
"1  c #CE8A1D",
"2  c #C68B1E",
"3  c #D3861E",
"4  c #D48A1E",
"5  c #DB8C1D",
"6  c #DA8915",
"7  c #CE911E",
"8  c #DB931E",
"9  c #D6951E",
"0  c #EE9C16",
"q  c #E7991A",
"w  c #F09D16",
"e  c #EEA11B",
"r  c #EAA11A",
"t  c #F1A21C",
"y  c #CB8522",
"u  c #CD8B23",
"i  c #C88B28",
"p  c #D18621",
"a  c #D48C22",
"s  c #D98D22",
"d  c #D38D29",
"f  c #CB9529",
"g  c #D59323",
"h  c #DC9323",
"j  c #D69A25",
"k  c #DC9B25",
"l  c #D4942C",
"z  c #DB952B",
"x  c #D59B2C",
"c  c #DB9C2A",
"v  c #C89737",
"b  c #D69B31",
"n  c #DA9C33",
"m  c #D89B38",
"M  c #CA8E35",
"N  c #E19624",
"B  c #E39C24",
"V  c #E29C2A",
"C  c #E79C25",
"Z  c #E29D33",
"A  c #DDA32C",
"S  c #DCA429",
"D  c #DCA334",
"F  c #DCA33A",
"G  c #DCAC3B",
"H  c #D9A936",
"J  c #D4AC3B",
"K  c #E5A225",
"L  c #EAA425",
"P  c #ECAA25",
"I  c #E4A32A",
"U  c #EAA52A",
"Y  c #E5AA2C",
"T  c #ECAB2B",
"R  c #E4A927",
"E  c #F2A622",
"W  c #F2AA26",
"Q  c #F2AC2B",
"!  c #ECB22D",
"~  c #F3B42D",
"^  c #F6BA2E",
"/  c #FABB2C",
"(  c #F7B428",
")  c #E2A533",
"_  c #E4AB32",
"`  c #EBAD32",
"'  c #E2A53C",
"]  c #E3AB3C",
"[  c #EAA733",
"{  c #F2AD31",
"}  c #E6B234",
"|  c #ECB433",
" . c #EDBA34",
".. c #E6B33B",
"X. c #EAB43C",
"o. c #E5BB3C",
"O. c #ECBB3C",
"+. c #F4B433",
"@. c #F4BB33",
"#. c #F9BD32",
"$. c #F5B63A",
"%. c #F4BC3C",
"&. c #F9BB3B",
"*. c #FDC12E",
"=. c #EBC33D",
"-. c #F6C236",
";. c #FCC334",
":. c #FFCA36",
">. c #F5C33C",
",. c #FBC53A",
"<. c #FDCB3C",
"1. c #F7CC3D",
"2. c #FFD13D",
"3. c #BF9751",
"4. c #BA8F4A",
"5. c #B99A68",
"6. c #B79A74",
"7. c #AF8D66",
"8. c #BEA171",
"9. c #C89C49",
"0. c #C39D58",
"q. c #D39D4E",
"w. c #CBA848",
"e. c #D7A947",
"r. c #D9B645",
"t. c #CAA857",
"y. c #D7AA56",
"u. c #D8B557",
"i. c #CCB251",
"p. c #E3AC41",
"a. c #E2AB48",
"s. c #E5B443",
"d. c #EBB644",
"f. c #E5BB43",
"g. c #ECBC43",
"h. c #E8B94B",
"j. c #F4BD43",
"k. c #F4BE49",
"l. c #F8BD45",
"z. c #E5B957",
"x. c #F0BF51",
"c. c #C9A868",
"v. c #D2AC68",
"b. c #D9B767",
"n. c #C7A975",
"m. c #D7B878",
"M. c #CDB171",
"N. c #E2BE6E",
"B. c #C19F68",
"V. c #EDC344",
"C. c #EBC44B",
"Z. c #E8C849",
"A. c #F3C444",
"S. c #FAC443",
"D. c #F4CB44",
"F. c #FCCC43",
"G. c #F3C34C",
"H. c #F9C34B",
"J. c #F4CC4B",
"K. c #FDCC4B",
"L. c #FED343",
"P. c #F4D34B",
"I. c #FCD44B",
"U. c #FEDB4C",
"Y. c #FFDA47",
"T. c #EDCA53",
"R. c #EAC759",
"E. c #F4CC52",
"W. c #FCCC53",
"Q. c #FBCB5B",
"!. c #F6C755",
"~. c #F3D354",
"^. c #FDD553",
"/. c #F5DA53",
"(. c #FDDC53",
"). c #F3D25C",
"_. c #FCD45B",
"`. c #FDDB5B",
"'. c #F4DC5C",
"]. c #EED253",
"[. c #FEE254",
"{. c #FCE45A",
"}. c #FDE75B",
"|. c #FFE14E",
" X c #DBC475",
".X c #DBC36A",
"XX c #E8C868",
"oX c #F5CC64",
"OX c #ECD263",
"+X c #EDD76B",
"@X c #F3D564",
"#X c #FBD464",
"$X c #FDDC63",
"%X c #F4D46B",
"&X c #F5DB6C",
"*X c #FCDD6B",
"=X c #F6D966",
"-X c #E9C877",
";X c #EBD57A",
":X c #F5D473",
">X c #F7DA79",
",X c #F1CE7A",
"<X c #FEE36C",
"1X c #FAE369",
"2X c #FCE373",
"3X c #FCE47C",
"4X c #FFE97B",
"5X c #F6E178",
"6X c #DDC24A",
"7X c #CEB385",
"8X c #DCCC92",
"9X c #E7CB86",
"0X c #E9D687",
"qX c #F3D484",
"wX c #FADC84",
"eX c #F6DB89",
"rX c #ECD596",
"tX c #F3DC98",
"yX c #FCE482",
"uX c #FDEA84",
"iX c #FBE28C",
"pX c #FDEC8C",
"aX c #F5E587",
"sX c #FCE494",
"dX c #FCED94",
"fX c #FCE59A",
"gX c #FDEA9D",
"hX c #F4EB99",
"jX c #FFF193",
"kX c #FEF39C",
"lX c #F3E792",
"zX c #EAD9A7",
"xX c #F2DEA5",
"cX c #E5DDB2",
"vX c #FEEBA3",
"bX c #FEECAB",
"nX c #F6E4A6",
"mX c #FDF5A3",
"MX c #FEF7A8",
"NX c #ECE4B8",
"BX c #FEEDB3",
"VX c #F7EAB8",
"CX c #FEF3B3",
"ZX c #FEF1BC",
"AX c #FEFDB2",
"SX c #DCD1A3",
"DX c #F5ECC3",
"FX c #FEF4C3",
"GX c #FEF6CA",
"HX c #FEF9CD",
"JX c #FBF7C8",
"KX c #FEFCD4",
"LX c #FFFFDA",
"PX c #F5F5D3",
"IX c #EFECC4",
"UX c None",
/* pixels */
"UXUXUXUXUXUXUXUXUXUXUXUXUXUXUXUXUXUXUXUXUXUXUXUXUXUXUXUXUXUXUXUXUXUXUXUXUXUXUXUXUXUXUXUXUXUXUXUXUXUXUXUXUXUXUXUXUXUXUXUXUXUXUXUXUXUXUXUXUXUXUXUXUXUXUXUXUXUXUXUX",
"UXUXUXUXUXUXUXUXUXUXUXUXUXUXUXUXUXUXUXUXUXUXUXUXUXUXUXUXUXUXUXUXUXUXUXeX:XeXiXeXeXaXeX#XeXUXUXUXUXUXUXUXUXUXUXUXUXUXUXUXUXUXUXUXUXUXUXUXUXUXUXUXUXUXUXUXUXUXUXUX",
"UXUXUXUXUXUXUXUXUXUXUXUXUXUXUXUXUXUXUXUXUXUXUXUXUXUXUXUXUXUX>XaXgXkXmXmXMXkXkXkXkXjXpXpXyX3X3XwX>X:XUXUXUXUXUXUXUXUXUXUXUXUXUXUXUXUXUXUXUXUXUXUXUXUXUXUXUXUXUXUX",
"UXUXUXUXUXUXUXUXUXUXUXUXUXUXUXUXUXUXUXUXUXUXUXUXUXUXUXwXgXbXMXAXMXMXhXaXaX;X;XXXXXOX+X+X=X*X<X<X<X1X=X>X>XUXUXUXUXUXUXUXUXUXUXUXUXUXUXUXUXUXUXUXUXUXUXUXUXUXUXUX",
"UXUXUXUXUXUXUXUXUXUXUXUXUXUXUXUXUXUXUXUXUXUXUXUX>XfXMXAXAXMXlX0X.Xi.w.w.r.r.r.6Xr.o.J J v v v J g.J.Y.U.(.).%X,XUXUXUXUXUXUXUXUXUXUXUXUXUXUXUXUXUXUXUXUXUXUXUXUX",
"UXUXUXUXUXUXUXUXUXUXUXUXUXUXUXUXUXUXUXUXUXUXwXhXCXAXMXhX Xi.i.6X6X/.{.}.}.}.[.|.[.[.[.|.|.U.D.o.J f f H >.2.Y.I.%X:XUXUXUXUXUXUXUXUXUXUXUXUXUXUXUXUXUXUXUXUXUXUX",
"UXUXUXUXUXUXUXUXUXUXUXUXUXUXUXUXUXUXUXUXeXfXAXAXMX0Xi.i.Z./.}.}.}.|./.].P./.|.|.U.U.P.Z.Z.1.F.Y.Y.Y.>.H f 2 } 2.2.^.%XqXUXUXUXUXUXUXUXUXUXUXUXUXUXUXUXUXUXUXUXUX",
"UXUXUXUXUXUXUXUXUXUXUXUXUXUXUXUXUXUXUXsXCXAXMX;Xi.r.].}.}.}.{.[./.OX+X5X@XY.U.U.Y.Y.A.OX'.'.~.D.Y.<.<.2.2. .f - _ F.^.$X,XUXUXUXUXUXUXUXUXUXUXUXUXUXUXUXUXUXUXUX",
"UXUXUXUXUXUXUXUXUXUXUXUXUXUXUXUXUXiXnXAXMX0Xi.r./.}.{./.P.U.[.|.Z.4X.Xo.V.L.Y.Y.L.Y.L.o.~.Z.f.>.<.O.J.o.@.:.<.^ f 2 h.$X*XwXqXUXUXUXUXUXUXUXUXUXUXUXUXUXUXUXUXUX",
"UXUXUXUXUXUXUXUXUXUXUXUXUXUXUXUXaXMXMXkX.Xr./.}.}.P.6X+X5XOXZ.U.D.&X+XOX@XD.L.L.2.2.L.-.E.o.,.:.;.O.J.G.T. .;.;.:.| 2 v :XuXsXqXUXUXUXUXUXUXUXUXUXUXUXUXUXUXUXUX",
"UXUXUXUXUXUXUXUXUXUXUXUXUXUXUXsXMXMX0Xw.Z.[.[.[.U.OXaXOXR.5XOXD.1.R.1Xr.o.1.2.2.2.<.<. .J.O.;.<.| D.s.f J.O.;.#.;.;.;.k &  XgXvXtXUXUXUXUXUXUXUXUXUXUXUXUXUXUXUX",
"UXUXUXUXUXUXUXUXUXUXUXUXUXUXsXMXkX.Xr./.[./.Y.|.U.].5X=.1.6X5X=.2.Z.'.Z.E.Z.<.<.<.:.:.} Q. .:.,.} D.A.J.V. .#.;.#.T ~ ;.{ - v.CXZXxXUXUXUXUXUXUXUXUXUXUXUXUXUXUX",
"UXUXUXUXUXUXUXUXUXUXUXUXUXfXmXkXb.o.|./.Y.].OXD.Y.V.5XT.2.V.&X=.2.o.).T.Z.O.<.:.;.;.;.@.g.@.;.^ =.g._ C._ #.#.~ Y j.d.! #.^ < 0.ZXGXnXUXUXUXUXUXUXUXUXUXUXUXUXUX",
"UXUXUXUXUXUXUXUXUXUXUXUXsXmXjXi.=.|.Y.Y.Y.Z.aXZ.1.1.T.OXG '.T.>.<.,. . .^ #.^ -.#.-.-.-.@.;.;.^  .} } G.T #.Y } g.V.} T ~ ~ ^ 1 4.VXHXxXUXUXUXUXUXUXUXUXUXUXUXUX",
"UXUXUXUXUXUXUXUXUXUXUXiXkXpXi.=.|.L.J.Z.L.1.T.2X .2.=.&X=XZ. .1.-.@.! R S k j S x k S S R T ~ @.~ #.! X.` } X.F.H G ..T { { Q ( 1 4.VXFXxXUXUXUXUXUXUXUXUXUXUXUX",
"UXUXUXUXUXUXUXUXUXUXaXkXpXu.=.U.Y.<.+XOX>.2. .OXOX-.-.=. .! ! S j x J y.b..X.XXX.XXXu.h.r.H x k I T ~ ~ ~ } } ) g.A.` Q Q Q I I W 1 4.bXCXrXUXUXUXUXUXUXUXUXUXUX",
"UXUXUXUXUXUXUXUXUXeXdXpXu.=.Y.L.=.=.o.5X=.:.<.} =X=.;.@.! j f w.b.0XtXhXhXhXdXpXlXuX3X2X&X@XT.s.H j k T ~ T T P c g.) W T c X.d.c Q * 4.mXgX9XUXUXUXUXUXUXUXUXUX",
"UXUXUXUXUXUXUXUXeXpXuXR.} 2.2.-.+X&Xr.h.@X| :.;. .! ! 9 v u.8XlXhXkXmXkXkXjXjXpXuX4X4X2X<X$X'._.J.O.A j h I T Q A g.I T j ..) F ..k E @ t.pXwX9XUXUXUXUXUXUXUXUX",
"UXUXUXUXUXUXUXUXiXuXOXH 2.1.-.^ T.2XOX'.<XC.-.;. .S i t.9XhXMXmXmXmXjXjXpXpXuX4X4X<X1X$X`.`.(.I.I.F.1. .A g k U I I K c } ] c g p.n K C o z.4X>XUXUXUXUXUXUXUXUX",
"UXUXUXUXUXUXUXeXuX&XH ,.2.-.OXT.S R.J } P.Z.! ! 7 >  XlXhXMXmXmXjXdXpXuX4XpX2X2X<X'.E.(.(.I.F.L.2.<.<.,.%.! g g C U B ) s.7 C a ..m B C 5 o ).#X-XUXUXUXUXUXUXUX",
"UXUXUXUXUXUXeXyX2Xr.@.<.,.-.V.).OXE.~.} | ! Y 2 9.0XhXMXkXkXjXpXdXpX4X4X2X5XiX$X$X^.O.I.I.F.@.<.<.<.<.,.,.;.! j u N C g ] p.b ) p.g N B V = ; I._.-XUXUXUXUXUXUX",
"UXUXUXUXUXUXwX<XT._ :.;.;.,.#.T O.E.$XO.~ R , t.0XhXMXkXjXjXjXuX5XhX4X1X<X_.sX'.(.I. .,.<.,.| ,.<.<.F.,.;.;.#.| k u h B g D ' D z h h s s N O ] L.XXUXUXUXUXUXUX",
"UXUXUXUXUXqX2X`.H #.;.;.;.;.;.;.^ ! O.Y K - t.0XkXkXjXpXdXpX4X4X<X&XhX1X`.I.%X2XL.F.&.;.<.,.Y ,.,.,.,.,.#.#.;.@.! k < h N s s g N s g m F s 3 o ;.F.-XUXUXUXUXUX",
"UXUXUXUXUX>X$XV.! ;.;.#.;.#.#.#.#.^ ~ S - 9.0XdXjXjXuXuXyXdXuX1X1X^.=XuXI.F.D.*X<.,. .^ <.@.U #.;.@.@.;.@.^ ^ ^ ^ P g y h N N s u l ' b p.d s + j :.R.UXUXUXUXUX",
"UXUXUXUXqX$X^.D ^ ;.#.#.-.#.^ #.^ ~ U - v ;XlXjXuX4X4X2X<X=XiX3X`.I.D.%X<XF.A.K.F.,.@.@.,.@.U ^ -.^ *.^ ^ ~ ~ ~ ! ! Y 1 < h h d m n ' i d e.s p O / >.N.UXUXUXUX",
"UXUXUXUX:X`.V.Y ;./ #.~ ~ ^ ^ ~ +.! 2 ; .XaXjXpXuXuX2X1X`.`.E.2X3XI.K.A.5XI.-.%.,.@. .^ ;. .T ^ ! ! ^ ^ ^ ~ ~ ~ ~ Q T k < < s a p.i d e.y n s N + k / N.UXUXUXUX",
"UXUXUXUX#XY.D ~ #.~ ` o...` ~ ~ T l $ i.5XuX3XuXyX5XpXlX*X^.I.A.%X2XF. .A.`.@. ./ @.| #.! Y T / ! ^ ! ! Y ~ ~ P P T P K h * a 3 l a.y z p s s s * + ( X.9XUXUXUX",
"UXUXUX,X^.>.A / ^ _ J.g.A.J._ Q I # v XX4X2X2X).h.} _ z..X..` A.-.~.`.,. .I.>.! | ~ ! -.@.Y T ! Y R r K 9 B N N K P U L B y = s p m d 3 s s s 3 a O B ~ N.UXUXUX",
"UXUXUX:XY.} U ^ T j...I k g.d.B u % r.&X2X<X).o.0 0 w 0 0 0 q G.>.~ J.I.~ @.>.! P T Y ;.~ Y ~ Y j 0 w w w w w w C U U U B 9 * y s p s s s s s s s @ * E z.UXUXUX",
"UXUXUX_.<.c ~ ~ I J.H K U } s.9 $ > ).1X`.1X%Xu.` W Q Q W w 0 z.2X>.| <.-.Y } ~ e K P <.} K T k g 0 t Q W Q Q U I [ U V C k < * p s s s s s s s h y O r ] UXUXUX",
"UXUXeXI.-.S ~ Q Y g.J.V.D g.] 1 o e.'.`.`.^.J.h.p.$.$.$.Q w w V !.$XO.! ,.Y I -.w q U 1.` W U g h w w Q $.$.$.) V I U V N N 3 * p s s s s s s s s h O 5 [ m.UXUX",
"UXUX;XL. .I Q T T V k } =.G.l # & f.`.I.I.Y.F.| A G.H.k.t t e N R V.L. .! I %.@.0 q Y S.Y T I g k w t t k.H.k.c B B z k N k s * p N s s s 3 u 5 N B + < C N.UXUX",
"UXUX:XI.) V Q U T L U C h c a O i D.U.L.F.<.<.@.V x.oX{ w t t C h.O.! ,._ S <.@.w 0 W >.Y T k h B e t e Q Q.x.h N h s h k N s = = g s s u m ' F g N < + N y.UXUX",
"UXUX#XI.b L U U U U U V V k < o x F.F.<.<.<.<.=.) z.l.t E E E C h.#Xj.! K | 2.&.w w E O.U U k g B E E t t l.h.N h s s h s h s y = 4 h a ' n g ' e.5 5 O s F UXUX",
"UXUX#X_.x U L I B C C k g.b @ o H 2.<.,.,.F.D.K.d.H E E E E E C V X.D.X.I ,.<.&.w w t T U U h s C E E E E E c s a a s s s s h p = 4 s x m 4 N 1 p.l q O 3 n 7XUX",
"UX9X*X#Xl K C n F c z g h.f + %  .<.:.,.,.^ ^ @.R l E Q W E E U V $.| Y } F.F.-.t t t E T U g k C W W W Q L a a s g s 5 k c s p = 1 8 x F 8 L 8 d.c L + 3 Z m.UX",
"UX-X3X:Xz C B Z d.O.d.O.k., O & @.:.;.,.,.;.;.^ ! k K { Q Q Q E U Y | c S.F.F.&.t t E E T c g V U { Q Q Q C a s a g 3 c d.s s p = 3 N j s.k r k D k E @ < V v.UX",
"UX-XsX,Xz C V k h a a l l < . - @.,.,.*.^ ^ @.%.V.X.I Q Q +.{ Q U U V ! F.F.F.j.t E E W L h k C W +.{ Q { N s a p a _ J.z 5 s a = 1 q N c V L e e P E , = I v.UX",
"UX9XvXeXd N N N h N N 8 g =   - @.;.^ >.J.!.@X).T._ j ` { { { { U U h A.F.F.K.j.E W W Q Q h B U { { { $.{ s 3 s B A.G.s s s s a < 1 K L L q B K L W W 2 * [ v.UX",
"UX9XCXrXu N N g x l 1 l m #   , ! ^ j.).G.O.! T P K g I $.+.$.{ T T ) K.K.K.K.l.W W Q ~ { V U L { $.$.+.U s V &.D.} p s z N z s < 1 K L c } A.g.A P ~ 1 < ` v.UX",
"UX0XFXrXu N s n g.d.F d.F @   - ! *. .@.~ ~ Q P T X.} ) &. .$.$.Q T  .K.H.K.W.A.{ Q +.{ +.{ U U $.$.$.$.+.^ @.Y 4 3 a p z ] B h 3 4 P q O.O.S } J.S ( 7 p $.b.UX",
"UX9XGXzXd s 5 ] i u O.i < =   # ! ^ ~ ~ ~ T T g.).E._ u $.j.j.$.{ Q $.H.K.W.W.l.{ +.+.+.$.T U T $.$.l.$.z h p 3 3 a h X.C.V N k 1 9 P Y V.k W K O.O.( g g &.M.UX",
"UX9XGXxXd 5 p ) ] ] X.' p.@   @ Y ~ ~ ~ P d.+XR._ K h 1 ] l.l.$.{ ( ~ G.W.W.W.H.$.+.&.&.&.! Q { j.l.l.X.a s h I ` >.P.X.B N C V 9 9 P ! V.S ( R d.V./ 1 k ,.v.UX",
"UX-XGXVXd s a z ) b l l l *   % K ~ P ! R.R.` C B K U k Z H.l.l.~ ^ +.A.W.W.Q.k.[ &.&.&.&.Q Q { j.l.l.| { ^ &.,.%.Y k N B U L U 9 j ( R A.V._ } ~.Y *.7 U F.c.UX",
"UX9XBXVXM s s s p p p 3 3 < . o k Q ! f.` L L C k L U 4 d l.H.l.#.+.^ j.Q.W.Q.) s l.l.l.$.Q ~ { l.H.H.z h z k N h N C L U Q Q U j R ( ( Y 1.E.I.o.^ *.2 ~ F.m.UX",
"UXUXnXbXM s s s s s p p p < O X g T U L L C B V L B h g u d.Q.l.#./ / &.!.Q.!.I u { l.S.+.( ~ +.k.H.k.z h s B N B K U U U Q +.U j R / *.*.~ ! ! ^ ;.;.2 #.J.n.UX",
"UXUXtXbXq.= s s s u F p.p.y +   # K L L K V B K N g h B < m Q.!.&.#.#.#.!.#Xl.U a l H.H.~ ~ ~ ^ H.!.j.+.#.#.+.~ ~ { { T T ~ / Y j ( ^ } ! ^ *.;.:.:.@.- :.C.UXUX",
"UXUXtXgXb.= s s y ] b y z a.#   + h L K B N N k N h z s < l Q.!.,.#.#.;.H.x.U C k y k.H.+.^ / &.Q.Q.) V Y  .~  .~ ~ ~ ~ ^ #.@.I S *. .].].J.o.} ;.<.| f :.XXUXUX",
"UXUX9XdX-Xy s 3 z ' 3 5 < G d O X u C B k k z N s h s 4 3 < x.Q.,.;.;.;.S.' T V B y b S.^ #./ &.Q.Q.[ B K U U U T ~  .#.;.;.^ I Y ;.;. . .Z.).'.g.L.A A 2.N.UXUX",
"UXUX9X3X#Xu 8 s l F 1 s < F l @   @ k N N V V h h h p a g * p.#XF.;.;.;.&.z T N C g y | / #.#.S.#X!.{./.A.| ~ ( #.;.,.;.;.;.| A #.,.&.<.<.-.%.V.D.I.v ~ S.M.UXUX",
"UXUXUX:X`.l 5 8 a ' m l b ' d < X o 1 N N V z d a s a s a = d #XK.;.;.<.| s U h V K y A #.#./ F.#X] ` J.'.{./.P.J.K.L.F.:.-.Y _ ,.=.].h.j.K.I.I.^.E.i *.k.UXUXUX",
"UXUXUX,X`.] 5 N h u D ' m g N 8 @   @ 5 z V z s s a 4 s a * y oXW.;.<.<.I s U k k ~ a u #.#.#.K.#X .~ Y ! =.J.L.P.I.F.L.2. .H O.F.D.T.'.).6XG._.$Xh.f / z.UXUXUX",
"UXUXUX X^.&.g N N N 9 9 8 B L N 1 O O < h h a a a p a s p < * z.`.:.L. .C g K B k +.U < A <.;.W.oX(.L.@.#.#.,.,.,.<.<.Y.>.H } D.P.V.r.r.].1XOX#X<X9.I @.M.UXUXUX",
"UXUXUXUXE.:.g 8 q C B e L q 8 j l , X O p s a 5 a 3 5 a 3 p = m #XY.F.V V h B B z Q #.k u @.;._.k.O.'.}.I.<.,.2.Y.<.Y.F.o.H G.E.T.=X'.=X1X=XOX#X%Xi Q p.7XUXUXUX",
"UXUXUXUXXX<.! 8 r K K 8 j n D ) F 7 $ X @ a s s a a g s a s 4 y #XU.d.k C V k N U U <.~ l _ <._.=./  .D./.(./.P.L.Y.Y.=.J h._.).R.1X&Xu.z.XX:XyXb.g W y.UXUXUXUX",
"UXUXUXUX7XF./ 9 L L K m F n b ' c r 9 + . @ a 5 p 5 s s p N s < T.[.c h N U I s ! |  .F.Y l ,.`.I.<.,.;.-.D.L.I.I.U.A.r.r.#X#X#XOXOXOX1X&X;XyXiX> N ) n.UXUXUXUX",
"UXUXUXUXUXR.*.I k P P S S 7 ' x k ) A 1 O O # 9 s s k s a V h 3 G J.C k h T K k P ~ ! F.D.A g.J.P.(.I.L.L.Y.Y.Y.U.D.r.e.%XoXOX+X3X3X,XXX+X,XgX Xy e y.UXUXUXUXUX",
"UXUXUXUXUX X%.W 9 E P W K n p.H ] ' G K 7 O O # s N h N z I I k c $.L I h Q ~ I ~ ;.^  .I.V. .1.>.P.(.(.U.U.U.|.P.r.y.oX:XOX&X-XqXaXiXsXiXfXfX: 5 Z B.UXUXUXUXUX",
"UXUXUXUXUXUXz./ B K ( ( K D n x D ] R ^ P 7 o O * h C V V U [ K C ! ~ T B U #.! @.F.,.;.>./.P.Y.Y.L.I././.[.(.J.r.y.XX3X;X&Xb.-X&X;XeXvXvXCXm.< N y.UXUXUXUXUXUX",
"UXUXUXUXUXUXm.d.r 7 W ( ( P R ) ..Y / / ^ ! j $ o * h U U T { ~ Y ~ ~ #.! U ,.@.@./.2.2.1.>./.(.I.U.(.(.[./.Z.e.u.-XeXsX0X+X&X1XXX&X0XvXBXtX; 3 n n.UXUXUXUXUXUX",
"UXUXUXUXUXUXUXb.T 8 k / ^ / Y .._ ^ *.*.;.#.! S $ o - h T ! ~ ~ ~ ~ ^ ;.@.` ,.<.1.D.(.2.Y.L.L./.[.[.[.{.P.r.i.b.qXiXsXfXkX0XqX0X9X+X0XCXZX0.3 N t.UXUXUXUXUXUXUX",
"UXUXUXUXUXUXUXUXa.q 5 Y *.*.| } / ;.;.;.;.;.;.@._ 2 % $ 7 I ~ ;.,.^ ;.:.;.,.-.F.I.F.P./.I.U.(.|.[./.P.Z.r.v. XeXtXfXgXnXvXbXbXxX;X;XxXGXm.* 5 q.UXUXUXUXUXUXUXUX",
"UXUXUXUXUXUXUXUXm.] N 1 ~ ;.;.;.;.;.;.,.;.:.<.,.>.O.H ; % - j Y ^ ,.<.2.2.<.L.I.U.Y.Y.U.[.[.U./.Z.6Xr.t.v.9XtXfXvXbXbXbXbXBXCXBXxXnXHXSX& s ' B.UXUXUXUXUXUXUXUX",
"UXUXUXUXUXUXUXUXUXv.c 5 a ;.:.;.;.,.<.<.<.<.K.L.K.K.C.f.J : ; ; f S } -.>.D.L.L.I.I.L.P.P.Z.6Xr.i.t.M.9XtXnXbXbXBXBXBXZXZXZXZXFXFXHXcX: 3 Z 0.UXUXUXUXUXUXUXUXUX",
"UXUXUXUXUXUXUXUXUXUXy.z 3 l ,.<.<.<.F.L.F.F.p.G.Q.d.x._.!.x.e.9.: : > v f J H J G J J J e.9.t.c.m.9XtXnXBX,X3XBXbXtXZXZXDXDXFXFXHXVX4.5 V t.UXUXUXUXUXUXUXUXUXUX",
"UXUXUXUXUXUXUXUXUXUXUXy.N 3 l F.F.K.K.I.^._.F h U U Q.$X*X%X%XoXXXb.y.0.0.3.3.3.0.0.t.c.m.7X9XzXxXbXBXBXFX,X;.#XE.rXGXFXFXFXGXKXIX3.4 ) y.UXUXUXUXUXUXUXUXUXUXUX",
"UXUXUXUXUXUXUXUXUXUXUXUXe.z 3 x W.^.^._.#X$Xd.8 B U H.>X3X2X3XwX>X>X>XqX;X9X,X9X9X9XrXrXtXnXnXnXCXBXZXZXCX$X*.2.J.VXHXGXHXHXKXNX3.a ) y.7XUXUXUXUXUXUXUXUXUXUXUX",
"UXUXUXUXUXUXUXUXUXUXUXUXUXy.V 5 x E.$X#X#Xx.p 3 C k F XX>XwXsX3XF.iXfXsXfXfXvXtXfXbXbXCXBXZXqXx.FXFXFXVXN.P *.<.,.wXGXHXHXLXcX4.d [ u.6.UXUXUXUXUXUXUXUXUXUXUXUX",
"UXUXUXUXUXUXUXUXUXUXUXUXUXUXy.[ K b R.2X>XXXXXy.6 y.iXiXqXa.K.F.,.iXbXbXbXbXCXa.-XFXZXZXZXHX-Xq oXoX XGXVXcXd. . X XNXKXLX8Xv k X.v.7XUXUXUXUXUXUXUXUXUXUXUXUXUX",
"UXUXUXUXUXUXUXUXUXUXUXUXUXUXUXb.$.W A z.>XyXuXiXM ,XfXfXvX-X^ ;.:.,.XXnXnXfXeXN ' nXnXDXxXz.V q q z cXKXHXLXN.N.LXKXLXPXn.i ) g.v.UXUXUXUXUXUXUXUXUXUXUXUXUXUXUX",
"UXUXUXUXUXUXUXUXUXUXUXUXUXUXUXUXv.G./ ! a.,XsXsXeXfXfXvXbX3X/ *.,.z.rXZXxXm C N s 5 q.DXNXc.s q q d.KXHXHXKXzXNXKXKXSX9.b } C.n.UXUXUXUXUXUXUXUXUXUXUXUXUXUXUXUX",
"UXUXUXUXUXUXUXUXUXUXUXUXUXUXUXUXUXn.R.<.;. .b.tXbXbXbXbXvXz.y.h.^ tXFXZXGXzX) C 8 q.PXHXKXLXy.6 m z tXLXHXHXLXLXcXc.v _ g.N.5.UXUXUXUXUXUXUXUXUXUXUXUXUXUXUXUXUX",
"UXUXUXUXUXUXUXUXUXUXUXUXUXUXUXUXUXUXUXb.I.<.*...N.xXBXZXBXxXFXVXy.xXGXGXGXBXL m 3 z.KXHXHXKXy.v.PXNXzXKXKXPXcXM.v A g.R.v.UXUXUXUXUXUXUXUXUXUXUXUXUXUXUXUXUXUXUX",
"UXUXUXUXUXUXUXUXUXUXUXUXUXUXUXUXUXUXUXUXn..XD.;.( ] b.rXVXGXGXHXDXVXGXGXHXxXm.IXzXt.JXKXHXHXcXHXLXLXLXIXSXc.v _ O.C.b.5.UXUXUXUXUXUXUXUXUXUXUXUXUXUXUXUXUXUXUXUX",
"UXUXUXUXUXUXUXUXUXUXUXUXUXUXUXUXUXUXUXUXUXUXn.R.A.*.( U F m.SXNXGXKXKXKXKXHXKXLXLXKXHXKXLXLXLXPXNX8XM.9.b _ g.C.b.n.UXUXUXUXUXUXUXUXUXUXUXUXUXUXUXUXUXUXUXUXUXUX",
"UXUXUXUXUXUXUXUXUXUXUXUXUXUXUXUXUXUXUXUXUXUXUXUXB.b.d.+.W r 8 z 9.v.8XSXcXNXNXNXNXNXNXzXSX7Xc.9.v x ) } C.z.b.8.UXUXUXUXUXUXUXUXUXUXUXUXUXUXUXUXUXUXUXUXUXUXUXUX",
"UXUXUXUXUXUXUXUXUXUXUXUXUXUXUXUXUXUXUXUXUXUXUXUXUXUX6.c.y.] [ B q 6 = 6 p p i i M i d d g g V Y d.h.z.b.M.6.UXUXUXUXUXUXUXUXUXUXUXUXUXUXUXUXUXUXUXUXUXUXUXUXUXUX",
"UXUXUXUXUXUXUXUXUXUXUXUXUXUXUXUXUXUXUXUXUXUXUXUXUXUXUXUXUXUXB.v.y.q.N Z Z Z N Z Z Z [ ' p.e.u.u.M.B.7.UXUXUXUXUXUXUXUXUXUXUXUXUXUXUXUXUXUXUXUXUXUXUXUXUXUXUXUXUX",
"UXUXUXUXUXUXUXUXUXUXUXUXUXUXUXUXUXUXUXUXUXUXUXUXUXUXUXUXUXUXUXUXUXUX6.5.7.c.c.c.c.c.B.5.8.6.UXUXUXUXUXUXUXUXUXUXUXUXUXUXUXUXUXUXUXUXUXUXUXUXUXUXUXUXUXUXUXUXUXUX",
"UXUXUXUXUXUXUXUXUXUXUXUXUXUXUXUXUXUXUXUXUXUXUXUXUXUXUXUXUXUXUXUXUXUXUXUXUXUXUXUXUXUXUXUXUXUXUXUXUXUXUXUXUXUXUXUXUXUXUXUXUXUXUXUXUXUXUXUXUXUXUXUXUXUXUXUXUXUXUXUX"
};
